<svg width="600" height="400" viewBox="0 0 600 400" xmlns="http://www.w3.org/2000/svg">
  <!-- Background Elements -->
  <circle cx="300" cy="200" r="150" fill="#e0e7ff" opacity="0.3"/>
  <circle cx="320" cy="180" r="120" fill="#c7d2fe" opacity="0.2"/>
  
  <!-- Clipboard -->
  <rect x="200" y="80" width="200" height="260" rx="10" fill="#ffffff" stroke="#3b82f6" stroke-width="3"/>
  <rect x="220" y="60" width="160" height="40" rx="20" fill="#3b82f6"/>
  
  <!-- Task Items -->
  <g transform="translate(220, 100)">
    <!-- Task 1 -->
    <rect width="160" height="40" rx="5" fill="#f1f5f9"/>
    <circle cx="20" cy="20" r="8" fill="#3b82f6"/>
    <line x1="17" y1="20" x2="23" y2="20" stroke="#ffffff" stroke-width="2"/>
    <line x1="45" y1="20" x2="140" y2="20" stroke="#64748b" stroke-width="2"/>
    
    <!-- Task 2 -->
    <rect y="50" width="160" height="40" rx="5" fill="#f1f5f9"/>
    <circle cx="20" cy="70" r="8" fill="#3b82f6"/>
    <line x1="17" y1="70" x2="23" y2="70" stroke="#ffffff" stroke-width="2"/>
    <line x1="45" y1="70" x2="120" y2="70" stroke="#64748b" stroke-width="2"/>
    
    <!-- Task 3 -->
    <rect y="100" width="160" height="40" rx="5" fill="#f1f5f9"/>
    <circle cx="20" cy="120" r="8" fill="#3b82f6"/>
    <path d="M15,120 L19,124 L25,116" fill="none" stroke="#ffffff" stroke-width="2"/>
    <line x1="45" y1="120" x2="130" y2="120" stroke="#64748b" stroke-width="2"/>
    
    <!-- Task 4 -->
    <rect y="150" width="160" height="40" rx="5" fill="#f1f5f9"/>
    <circle cx="20" cy="170" r="8" fill="#3b82f6"/>
    <line x1="17" y1="170" x2="23" y2="170" stroke="#ffffff" stroke-width="2"/>
    <line x1="45" y1="170" x2="135" y2="170" stroke="#64748b" stroke-width="2"/>
  </g>
  
  <!-- Floating Elements -->
  <g transform="translate(440, 140)">
    <circle cx="0" cy="0" r="15" fill="#3b82f6" opacity="0.8">
      <animate attributeName="cy" values="0;-10;0" dur="2s" repeatCount="indefinite"/>
    </circle>
  </g>
  
  <g transform="translate(150, 200)">
    <rect width="30" height="30" rx="5" fill="#3b82f6" opacity="0.6">
      <animate attributeName="y" values="0;-15;0" dur="2.5s" repeatCount="indefinite"/>
    </rect>
  </g>
    <g transform="translate(460, 280)">
    <polygon points="0,0 15,25 30,0" fill="#3b82f6" opacity="0.7">
      <animate attributeName="cy" values="0;-12;0" dur="1.8s" repeatCount="indefinite"/>
    </polygon>
  </g>

</svg>
